<?xml version="1.0" encoding="UTF-8"?>
<svg width="100" height="100" viewBox="0 0 100 100" xmlns="http://www.w3.org/2000/svg">
  <defs>
    <linearGradient id="grad" x1="0%" y1="0%" x2="100%" y2="100%">
      <stop offset="0%" style="stop-color:#6366f1;stop-opacity:1" />
      <stop offset="100%" style="stop-color:#a855f7;stop-opacity:1" />
    </linearGradient>
  </defs>
  <path fill="url(#grad)" d="M50 5
    A 45 45, 0, 1, 1, 95 50
    A 45 45, 0, 1, 1, 50 95
    A 45 45, 0, 1, 1, 5 50
    A 45 45, 0, 1, 1, 50 5
    Z" />
  <path fill="white" d="M35 40
    L 65 40
    Q 70 40, 70 45
    L 70 70
    Q 70 75, 65 75
    L 35 75
    Q 30 75, 30 70
    L 30 45
    Q 30 40, 35 40
    M40 30
    L 60 30
    L 60 40
    L 40 40
    Z" />
</svg>
